STARTFONT 2.1
FONT -FontForge-LED Counter 7-Book-R-Normal--15-140-75-75-P-81-ISO10646-1
SIZE 14 75 75
FONTBOUNDINGBOX 15 18 0 -3
COMMENT "Generated by fontforge, http://fontforge.sourceforge.net"
COMMENT "Copyright (c) 2013 by Style-7. All rights reserved. http://www.styleseven.com"
STARTPROPERTIES 40
FOUNDRY "FontForge"
FAMILY_NAME "LED Counter 7"
WEIGHT_NAME "Book"
SLANT "R"
SETWIDTH_NAME "Normal"
ADD_STYLE_NAME ""
PIXEL_SIZE 15
POINT_SIZE 140
RESOLUTION_X 75
RESOLUTION_Y 75
SPACING "P"
AVERAGE_WIDTH 81
CHARSET_REGISTRY "ISO10646"
CHARSET_ENCODING "1"
FONTNAME_REGISTRY ""
CHARSET_COLLECTIONS "ISO10646-1"
FONT_NAME "LEDCounter7"
FACE_NAME "LED Counter 7"
COPYRIGHT "Copyright (c) 2013 by Style-7. All rights reserved. http://www.styleseven.com"
FONT_VERSION "1.1"
FONT_ASCENT 11
FONT_DESCENT 4
UNDERLINE_POSITION -3
UNDERLINE_THICKNESS 2
X_HEIGHT 6
CAP_HEIGHT 9
RAW_ASCENT 750
RAW_DESCENT 250
NORM_SPACE 9
RELATIVE_WEIGHT 40
RELATIVE_SETWIDTH 50
SUPERSCRIPT_X 0
SUPERSCRIPT_Y 7
SUPERSCRIPT_SIZE 9
SUBSCRIPT_X 0
SUBSCRIPT_Y 2
SUBSCRIPT_SIZE 9
FIGURE_WIDTH 9
AVG_LOWERCASE_WIDTH 79
AVG_UPPERCASE_WIDTH 91
ENDPROPERTIES
CHARS 226
STARTCHAR space
ENCODING 32
SWIDTH 600 0
DWIDTH 9 0
BBX 1 1 0 0
BITMAP
00
ENDCHAR
STARTCHAR exclam
ENCODING 33
SWIDTH 200 0
DWIDTH 3 0
BBX 1 10 0 0
BITMAP
80
80
00
80
80
00
80
00
00
80
ENDCHAR
STARTCHAR quotedbl
ENCODING 34
SWIDTH 400 0
DWIDTH 6 0
BBX 4 4 0 6
BITMAP
90
90
00
90
ENDCHAR
STARTCHAR numbersign
ENCODING 35
SWIDTH 600 0
DWIDTH 9 0
BBX 7 10 0 0
BITMAP
24
24
00
B6
24
00
B6
24
00
24
ENDCHAR
STARTCHAR dollar
ENCODING 36
SWIDTH 600 0
DWIDTH 9 0
BBX 7 13 0 -1
BITMAP
10
00
36
90
00
90
34
00
12
12
00
B4
10
ENDCHAR
STARTCHAR percent
ENCODING 37
SWIDTH 600 0
DWIDTH 9 0
BBX 7 10 0 0
BITMAP
A2
A2
00
04
10
00
20
86
00
86
ENDCHAR
STARTCHAR ampersand
ENCODING 38
SWIDTH 600 0
DWIDTH 9 0
BBX 7 10 0 0
BITMAP
30
84
00
84
32
00
84
84
00
32
ENDCHAR
STARTCHAR quotesingle
ENCODING 39
SWIDTH 200 0
DWIDTH 3 0
BBX 1 4 0 6
BITMAP
80
80
00
80
ENDCHAR
STARTCHAR parenleft
ENCODING 40
SWIDTH 400 0
DWIDTH 5 0
BBX 3 10 0 0
BITMAP
60
80
00
80
80
00
80
80
00
60
ENDCHAR
STARTCHAR parenright
ENCODING 41
SWIDTH 400 0
DWIDTH 5 0
BBX 3 10 0 0
BITMAP
C0
20
00
20
20
00
20
20
00
C0
ENDCHAR
STARTCHAR asterisk
ENCODING 42
SWIDTH 600 0
DWIDTH 9 0
BBX 7 7 0 2
BITMAP
24
00
10
B6
00
10
24
ENDCHAR
STARTCHAR plus
ENCODING 43
SWIDTH 600 0
DWIDTH 9 0
BBX 7 7 0 2
BITMAP
10
00
10
B6
00
10
10
ENDCHAR
STARTCHAR comma
ENCODING 44
SWIDTH 300 0
DWIDTH 5 0
BBX 3 6 0 -3
BITMAP
A0
00
A0
20
00
20
ENDCHAR
STARTCHAR hyphen
ENCODING 45
SWIDTH 600 0
DWIDTH 9 0
BBX 7 1 0 5
BITMAP
B6
ENDCHAR
STARTCHAR period
ENCODING 46
SWIDTH 300 0
DWIDTH 5 0
BBX 3 3 0 0
BITMAP
A0
00
A0
ENDCHAR
STARTCHAR slash
ENCODING 47
SWIDTH 600 0
DWIDTH 9 0
BBX 7 10 0 0
BITMAP
02
02
00
04
10
00
20
80
00
80
ENDCHAR
STARTCHAR zero
ENCODING 48
SWIDTH 600 0
DWIDTH 9 0
BBX 7 10 0 0
BITMAP
34
82
00
86
92
00
A2
82
00
34
ENDCHAR
STARTCHAR one
ENCODING 49
SWIDTH 600 0
DWIDTH 9 0
BBX 7 10 0 0
BITMAP
10
30
00
90
10
00
10
10
00
B6
ENDCHAR
STARTCHAR two
ENCODING 50
SWIDTH 600 0
DWIDTH 9 0
BBX 7 10 0 0
BITMAP
B4
02
00
02
34
00
80
80
00
B6
ENDCHAR
STARTCHAR three
ENCODING 51
SWIDTH 600 0
DWIDTH 9 0
BBX 7 10 0 0
BITMAP
B4
02
00
02
34
00
02
02
00
B4
ENDCHAR
STARTCHAR four
ENCODING 52
SWIDTH 600 0
DWIDTH 9 0
BBX 7 10 0 0
BITMAP
82
82
00
82
B6
00
02
02
00
02
ENDCHAR
STARTCHAR five
ENCODING 53
SWIDTH 600 0
DWIDTH 9 0
BBX 7 10 0 0
BITMAP
B6
80
00
80
B4
00
02
02
00
B4
ENDCHAR
STARTCHAR six
ENCODING 54
SWIDTH 600 0
DWIDTH 9 0
BBX 7 10 0 0
BITMAP
34
80
00
80
B4
00
82
82
00
34
ENDCHAR
STARTCHAR seven
ENCODING 55
SWIDTH 600 0
DWIDTH 9 0
BBX 7 10 0 0
BITMAP
B6
82
00
82
02
00
02
02
00
02
ENDCHAR
STARTCHAR eight
ENCODING 56
SWIDTH 600 0
DWIDTH 9 0
BBX 7 10 0 0
BITMAP
34
82
00
82
34
00
82
82
00
34
ENDCHAR
STARTCHAR nine
ENCODING 57
SWIDTH 600 0
DWIDTH 9 0
BBX 7 10 0 0
BITMAP
34
82
00
82
36
00
02
02
00
34
ENDCHAR
STARTCHAR colon
ENCODING 58
SWIDTH 300 0
DWIDTH 5 0
BBX 3 7 0 2
BITMAP
A0
00
A0
00
00
A0
A0
ENDCHAR
STARTCHAR semicolon
ENCODING 59
SWIDTH 300 0
DWIDTH 5 0
BBX 3 12 0 -3
BITMAP
A0
00
A0
00
00
00
A0
00
A0
20
00
20
ENDCHAR
STARTCHAR less
ENCODING 60
SWIDTH 400 0
DWIDTH 5 0
BBX 3 7 0 2
BITMAP
20
00
40
80
00
40
20
ENDCHAR
STARTCHAR equal
ENCODING 61
SWIDTH 600 0
DWIDTH 9 0
BBX 7 4 0 3
BITMAP
B6
00
00
B6
ENDCHAR
STARTCHAR greater
ENCODING 62
SWIDTH 400 0
DWIDTH 5 0
BBX 3 7 0 2
BITMAP
80
00
40
20
00
40
80
ENDCHAR
STARTCHAR question
ENCODING 63
SWIDTH 600 0
DWIDTH 9 0
BBX 7 10 0 0
BITMAP
B4
02
00
02
34
00
20
00
00
20
ENDCHAR
STARTCHAR at
ENCODING 64
SWIDTH 600 0
DWIDTH 9 0
BBX 7 10 0 0
BITMAP
34
82
00
92
92
00
96
80
00
36
ENDCHAR
STARTCHAR A
ENCODING 65
SWIDTH 600 0
DWIDTH 9 0
BBX 7 10 0 0
BITMAP
34
82
00
82
B6
00
82
82
00
82
ENDCHAR
STARTCHAR B
ENCODING 66
SWIDTH 600 0
DWIDTH 9 0
BBX 7 10 0 0
BITMAP
B4
82
00
82
B4
00
82
82
00
B4
ENDCHAR
STARTCHAR C
ENCODING 67
SWIDTH 600 0
DWIDTH 9 0
BBX 7 10 0 0
BITMAP
36
80
00
80
80
00
80
80
00
36
ENDCHAR
STARTCHAR D
ENCODING 68
SWIDTH 600 0
DWIDTH 9 0
BBX 7 10 0 0
BITMAP
B4
82
00
82
82
00
82
82
00
B4
ENDCHAR
STARTCHAR E
ENCODING 69
SWIDTH 600 0
DWIDTH 9 0
BBX 7 10 0 0
BITMAP
B6
80
00
80
B4
00
80
80
00
B6
ENDCHAR
STARTCHAR F
ENCODING 70
SWIDTH 600 0
DWIDTH 9 0
BBX 7 10 0 0
BITMAP
B6
80
00
80
B4
00
80
80
00
80
ENDCHAR
STARTCHAR G
ENCODING 71
SWIDTH 600 0
DWIDTH 9 0
BBX 7 10 0 0
BITMAP
36
80
00
80
86
00
82
82
00
36
ENDCHAR
STARTCHAR H
ENCODING 72
SWIDTH 600 0
DWIDTH 9 0
BBX 7 10 0 0
BITMAP
82
82
00
82
B6
00
82
82
00
82
ENDCHAR
STARTCHAR I
ENCODING 73
SWIDTH 600 0
DWIDTH 9 0
BBX 7 10 0 0
BITMAP
B6
10
00
10
10
00
10
10
00
B6
ENDCHAR
STARTCHAR J
ENCODING 74
SWIDTH 600 0
DWIDTH 9 0
BBX 7 10 0 0
BITMAP
B6
02
00
02
82
00
82
82
00
34
ENDCHAR
STARTCHAR K
ENCODING 75
SWIDTH 600 0
DWIDTH 9 0
BBX 7 10 0 0
BITMAP
82
84
00
90
A0
00
90
84
00
82
ENDCHAR
STARTCHAR L
ENCODING 76
SWIDTH 600 0
DWIDTH 9 0
BBX 7 10 0 0
BITMAP
80
80
00
80
80
00
80
80
00
B6
ENDCHAR
STARTCHAR M
ENCODING 77
SWIDTH 600 0
DWIDTH 9 0
BBX 7 10 0 0
BITMAP
82
A6
00
92
92
00
82
82
00
82
ENDCHAR
STARTCHAR N
ENCODING 78
SWIDTH 600 0
DWIDTH 9 0
BBX 7 10 0 0
BITMAP
82
82
00
A2
92
00
86
82
00
82
ENDCHAR
STARTCHAR O
ENCODING 79
SWIDTH 600 0
DWIDTH 9 0
BBX 7 10 0 0
BITMAP
34
82
00
82
82
00
82
82
00
34
ENDCHAR
STARTCHAR P
ENCODING 80
SWIDTH 600 0
DWIDTH 9 0
BBX 7 10 0 0
BITMAP
B4
82
00
82
B4
00
80
80
00
80
ENDCHAR
STARTCHAR Q
ENCODING 81
SWIDTH 600 0
DWIDTH 9 0
BBX 7 10 0 0
BITMAP
34
82
00
82
82
00
82
86
00
36
ENDCHAR
STARTCHAR R
ENCODING 82
SWIDTH 600 0
DWIDTH 9 0
BBX 7 10 0 0
BITMAP
B4
82
00
82
B4
00
90
84
00
82
ENDCHAR
STARTCHAR S
ENCODING 83
SWIDTH 600 0
DWIDTH 9 0
BBX 7 10 0 0
BITMAP
36
80
00
80
34
00
02
02
00
B4
ENDCHAR
STARTCHAR T
ENCODING 84
SWIDTH 600 0
DWIDTH 9 0
BBX 7 10 0 0
BITMAP
B6
10
00
10
10
00
10
10
00
10
ENDCHAR
STARTCHAR U
ENCODING 85
SWIDTH 600 0
DWIDTH 9 0
BBX 7 10 0 0
BITMAP
82
82
00
82
82
00
82
82
00
34
ENDCHAR
STARTCHAR V
ENCODING 86
SWIDTH 600 0
DWIDTH 9 0
BBX 7 10 0 0
BITMAP
82
82
00
82
82
00
82
24
00
10
ENDCHAR
STARTCHAR W
ENCODING 87
SWIDTH 600 0
DWIDTH 9 0
BBX 7 10 0 0
BITMAP
82
82
00
82
92
00
92
92
00
24
ENDCHAR
STARTCHAR X
ENCODING 88
SWIDTH 600 0
DWIDTH 9 0
BBX 7 10 0 0
BITMAP
82
82
00
24
10
00
24
82
00
82
ENDCHAR
STARTCHAR Y
ENCODING 89
SWIDTH 600 0
DWIDTH 9 0
BBX 7 10 0 0
BITMAP
82
82
00
24
10
00
10
10
00
10
ENDCHAR
STARTCHAR Z
ENCODING 90
SWIDTH 600 0
DWIDTH 9 0
BBX 7 10 0 0
BITMAP
B6
02
00
04
10
00
20
80
00
B6
ENDCHAR
STARTCHAR bracketleft
ENCODING 91
SWIDTH 400 0
DWIDTH 5 0
BBX 3 10 0 0
BITMAP
E0
80
00
80
80
00
80
80
00
E0
ENDCHAR
STARTCHAR backslash
ENCODING 92
SWIDTH 600 0
DWIDTH 9 0
BBX 7 10 0 0
BITMAP
80
80
00
20
10
00
04
02
00
02
ENDCHAR
STARTCHAR bracketright
ENCODING 93
SWIDTH 400 0
DWIDTH 5 0
BBX 3 10 0 0
BITMAP
E0
20
00
20
20
00
20
20
00
E0
ENDCHAR
STARTCHAR asciicircum
ENCODING 94
SWIDTH 600 0
DWIDTH 9 0
BBX 7 4 0 6
BITMAP
10
24
00
82
ENDCHAR
STARTCHAR underscore
ENCODING 95
SWIDTH 600 0
DWIDTH 9 0
BBX 7 1 0 0
BITMAP
B6
ENDCHAR
STARTCHAR grave
ENCODING 96
SWIDTH 400 0
DWIDTH 5 0
BBX 3 4 0 6
BITMAP
80
40
00
20
ENDCHAR
STARTCHAR a
ENCODING 97
SWIDTH 500 0
DWIDTH 8 0
BBX 6 7 0 0
BITMAP
34
84
00
84
84
00
34
ENDCHAR
STARTCHAR b
ENCODING 98
SWIDTH 500 0
DWIDTH 8 0
BBX 6 10 0 0
BITMAP
80
80
00
B0
84
00
84
84
00
B0
ENDCHAR
STARTCHAR c
ENCODING 99
SWIDTH 500 0
DWIDTH 8 0
BBX 6 7 0 0
BITMAP
34
80
00
80
80
00
34
ENDCHAR
STARTCHAR d
ENCODING 100
SWIDTH 500 0
DWIDTH 8 0
BBX 6 10 0 0
BITMAP
04
04
00
34
84
00
84
84
00
34
ENDCHAR
STARTCHAR e
ENCODING 101
SWIDTH 500 0
DWIDTH 8 0
BBX 6 7 0 0
BITMAP
30
84
00
B4
80
00
34
ENDCHAR
STARTCHAR f
ENCODING 102
SWIDTH 500 0
DWIDTH 8 0
BBX 6 10 0 0
BITMAP
14
20
00
B0
20
00
20
20
00
20
ENDCHAR
STARTCHAR g
ENCODING 103
SWIDTH 500 0
DWIDTH 8 0
BBX 6 10 0 -3
BITMAP
34
84
00
84
84
00
34
04
00
30
ENDCHAR
STARTCHAR h
ENCODING 104
SWIDTH 500 0
DWIDTH 8 0
BBX 6 10 0 0
BITMAP
80
80
00
B0
84
00
84
84
00
84
ENDCHAR
STARTCHAR i
ENCODING 105
SWIDTH 400 0
DWIDTH 5 0
BBX 3 10 0 0
BITMAP
40
00
00
E0
40
00
40
40
00
E0
ENDCHAR
STARTCHAR j
ENCODING 106
SWIDTH 400 0
DWIDTH 6 0
BBX 4 13 0 -3
BITMAP
20
00
00
B0
10
00
10
10
00
10
10
00
A0
ENDCHAR
STARTCHAR k
ENCODING 107
SWIDTH 500 0
DWIDTH 8 0
BBX 6 10 0 0
BITMAP
80
80
00
84
90
00
A0
90
00
84
ENDCHAR
STARTCHAR l
ENCODING 108
SWIDTH 400 0
DWIDTH 5 0
BBX 3 10 0 0
BITMAP
C0
40
00
40
40
00
40
40
00
E0
ENDCHAR
STARTCHAR m
ENCODING 109
SWIDTH 600 0
DWIDTH 9 0
BBX 7 7 0 0
BITMAP
A4
92
00
92
92
00
92
ENDCHAR
STARTCHAR n
ENCODING 110
SWIDTH 500 0
DWIDTH 8 0
BBX 6 7 0 0
BITMAP
B0
84
00
84
84
00
84
ENDCHAR
STARTCHAR o
ENCODING 111
SWIDTH 500 0
DWIDTH 8 0
BBX 6 7 0 0
BITMAP
30
84
00
84
84
00
30
ENDCHAR
STARTCHAR p
ENCODING 112
SWIDTH 500 0
DWIDTH 8 0
BBX 6 10 0 -3
BITMAP
B0
84
00
84
84
00
B0
80
00
80
ENDCHAR
STARTCHAR q
ENCODING 113
SWIDTH 500 0
DWIDTH 8 0
BBX 6 10 0 -3
BITMAP
34
84
00
84
84
00
34
04
00
04
ENDCHAR
STARTCHAR r
ENCODING 114
SWIDTH 500 0
DWIDTH 8 0
BBX 6 7 0 0
BITMAP
B0
84
00
80
80
00
80
ENDCHAR
STARTCHAR s
ENCODING 115
SWIDTH 500 0
DWIDTH 8 0
BBX 6 7 0 0
BITMAP
34
80
00
B4
04
00
B0
ENDCHAR
STARTCHAR t
ENCODING 116
SWIDTH 500 0
DWIDTH 8 0
BBX 6 10 0 0
BITMAP
20
20
00
B0
20
00
20
20
00
14
ENDCHAR
STARTCHAR u
ENCODING 117
SWIDTH 500 0
DWIDTH 8 0
BBX 6 7 0 0
BITMAP
84
84
00
84
84
00
34
ENDCHAR
STARTCHAR v
ENCODING 118
SWIDTH 600 0
DWIDTH 9 0
BBX 7 7 0 0
BITMAP
82
82
00
82
24
00
10
ENDCHAR
STARTCHAR w
ENCODING 119
SWIDTH 600 0
DWIDTH 9 0
BBX 7 7 0 0
BITMAP
82
92
00
92
92
00
24
ENDCHAR
STARTCHAR x
ENCODING 120
SWIDTH 500 0
DWIDTH 8 0
BBX 6 7 0 0
BITMAP
84
84
00
30
84
00
84
ENDCHAR
STARTCHAR y
ENCODING 121
SWIDTH 500 0
DWIDTH 8 0
BBX 6 10 0 -3
BITMAP
84
84
00
84
84
00
34
04
00
30
ENDCHAR
STARTCHAR z
ENCODING 122
SWIDTH 500 0
DWIDTH 8 0
BBX 6 7 0 0
BITMAP
B4
04
00
30
80
00
B4
ENDCHAR
STARTCHAR braceleft
ENCODING 123
SWIDTH 500 0
DWIDTH 8 0
BBX 6 10 0 0
BITMAP
14
20
00
20
80
00
20
20
00
14
ENDCHAR
STARTCHAR bar
ENCODING 124
SWIDTH 200 0
DWIDTH 3 0
BBX 1 10 0 0
BITMAP
80
80
00
80
80
00
80
80
00
80
ENDCHAR
STARTCHAR braceright
ENCODING 125
SWIDTH 500 0
DWIDTH 8 0
BBX 6 10 0 0
BITMAP
A0
10
00
10
04
00
10
10
00
A0
ENDCHAR
STARTCHAR asciitilde
ENCODING 126
SWIDTH 500 0
DWIDTH 8 0
BBX 6 3 0 3
BITMAP
24
00
90
ENDCHAR
STARTCHAR space.dup1
ENCODING 160
SWIDTH 600 0
DWIDTH 9 0
BBX 1 1 0 0
BITMAP
00
ENDCHAR
STARTCHAR exclamdown
ENCODING 161
SWIDTH 200 0
DWIDTH 3 0
BBX 1 10 0 0
BITMAP
80
00
00
80
80
00
80
80
00
80
ENDCHAR
STARTCHAR cent
ENCODING 162
SWIDTH 600 0
DWIDTH 9 0
BBX 7 10 0 -1
BITMAP
10
00
36
90
00
90
90
00
36
10
ENDCHAR
STARTCHAR sterling
ENCODING 163
SWIDTH 500 0
DWIDTH 8 0
BBX 6 10 0 0
BITMAP
14
20
00
B0
20
00
20
20
00
B4
ENDCHAR
STARTCHAR currency
ENCODING 164
SWIDTH 600 0
DWIDTH 9 0
BBX 7 7 0 2
BITMAP
82
00
34
24
00
34
82
ENDCHAR
STARTCHAR yen
ENCODING 165
SWIDTH 600 0
DWIDTH 9 0
BBX 7 10 0 0
BITMAP
82
24
00
10
34
00
10
34
00
10
ENDCHAR
STARTCHAR brokenbar
ENCODING 166
SWIDTH 200 0
DWIDTH 3 0
BBX 1 10 0 0
BITMAP
80
80
00
80
00
00
80
80
00
80
ENDCHAR
STARTCHAR section
ENCODING 167
SWIDTH 600 0
DWIDTH 9 0
BBX 7 10 0 0
BITMAP
36
80
00
B4
82
00
36
02
00
B4
ENDCHAR
STARTCHAR dieresis
ENCODING 168
SWIDTH 600 0
DWIDTH 9 0
BBX 7 2 0 8
BITMAP
A6
A6
ENDCHAR
STARTCHAR copyright
ENCODING 169
SWIDTH 833 0
DWIDTH 12 0
BBX 10 13 0 -1
BITMAP
3680
0000
8040
9640
0000
9040
9040
0000
9040
9640
0000
8040
3680
ENDCHAR
STARTCHAR ordfeminine
ENCODING 170
SWIDTH 600 0
DWIDTH 9 0
BBX 7 7 0 3
BITMAP
34
02
00
36
82
00
36
ENDCHAR
STARTCHAR guillemotleft
ENCODING 171
SWIDTH 700 0
DWIDTH 11 0
BBX 9 7 0 2
BITMAP
1080
0000
2200
8400
0000
2200
1080
ENDCHAR
STARTCHAR logicalnot
ENCODING 172
SWIDTH 600 0
DWIDTH 9 0
BBX 7 4 0 6
BITMAP
B6
02
00
02
ENDCHAR
STARTCHAR registered
ENCODING 174
SWIDTH 833 0
DWIDTH 12 0
BBX 10 13 0 -1
BITMAP
3680
0000
8040
9440
0000
9240
9440
0000
9240
9240
0000
8040
3680
ENDCHAR
STARTCHAR degree
ENCODING 176
SWIDTH 500 0
DWIDTH 8 0
BBX 6 5 0 5
BITMAP
30
84
00
84
30
ENDCHAR
STARTCHAR plusminus
ENCODING 177
SWIDTH 600 0
DWIDTH 9 0
BBX 7 9 0 0
BITMAP
10
00
10
B6
00
10
10
00
B6
ENDCHAR
STARTCHAR twosuperior
ENCODING 178
SWIDTH 500 0
DWIDTH 8 0
BBX 6 7 0 3
BITMAP
B0
04
00
30
80
00
B4
ENDCHAR
STARTCHAR threesuperior
ENCODING 179
SWIDTH 500 0
DWIDTH 8 0
BBX 6 7 0 3
BITMAP
B0
04
00
30
04
00
B0
ENDCHAR
STARTCHAR acute
ENCODING 180
SWIDTH 400 0
DWIDTH 5 0
BBX 3 4 0 6
BITMAP
20
40
00
80
ENDCHAR
STARTCHAR mu
ENCODING 181
SWIDTH 600 0
DWIDTH 9 0
BBX 7 10 0 -1
BITMAP
82
00
82
82
00
82
A6
00
92
80
ENDCHAR
STARTCHAR paragraph
ENCODING 182
SWIDTH 600 0
DWIDTH 9 0
BBX 7 10 0 0
BITMAP
B6
A4
00
24
24
00
24
24
00
24
ENDCHAR
STARTCHAR periodcentered
ENCODING 183
SWIDTH 300 0
DWIDTH 5 0
BBX 3 3 0 3
BITMAP
A0
00
A0
ENDCHAR
STARTCHAR cedilla
ENCODING 184
SWIDTH 400 0
DWIDTH 6 0
BBX 4 3 0 -3
BITMAP
10
00
A0
ENDCHAR
STARTCHAR onesuperior
ENCODING 185
SWIDTH 400 0
DWIDTH 5 0
BBX 3 7 0 3
BITMAP
C0
40
00
40
40
00
E0
ENDCHAR
STARTCHAR ordmasculine
ENCODING 186
SWIDTH 500 0
DWIDTH 8 0
BBX 6 7 0 3
BITMAP
30
84
00
84
84
00
30
ENDCHAR
STARTCHAR guillemotright
ENCODING 187
SWIDTH 700 0
DWIDTH 11 0
BBX 9 7 0 2
BITMAP
8400
0000
2200
1080
0000
2200
8400
ENDCHAR
STARTCHAR onequarter
ENCODING 188
SWIDTH 700 0
DWIDTH 11 0
BBX 9 10 0 0
BITMAP
8200
0200
0000
0400
1000
0000
2000
8000
0000
9680
ENDCHAR
STARTCHAR onehalf
ENCODING 189
SWIDTH 600 0
DWIDTH 9 0
BBX 7 10 0 0
BITMAP
82
02
00
04
10
00
20
80
00
86
ENDCHAR
STARTCHAR threequarters
ENCODING 190
SWIDTH 700 0
DWIDTH 11 0
BBX 9 10 0 0
BITMAP
B200
0200
0000
0400
1000
0000
2000
8000
0000
9680
ENDCHAR
STARTCHAR questiondown
ENCODING 191
SWIDTH 600 0
DWIDTH 9 0
BBX 7 10 0 0
BITMAP
04
00
00
04
34
00
80
80
00
36
ENDCHAR
STARTCHAR Agrave
ENCODING 192
SWIDTH 600 0
DWIDTH 9 0
BBX 7 15 0 0
BITMAP
20
00
10
00
00
34
82
00
82
B6
00
82
82
00
82
ENDCHAR
STARTCHAR Aacute
ENCODING 193
SWIDTH 600 0
DWIDTH 9 0
BBX 7 15 0 0
BITMAP
04
00
10
00
00
34
82
00
82
B6
00
82
82
00
82
ENDCHAR
STARTCHAR Acircumflex
ENCODING 194
SWIDTH 600 0
DWIDTH 9 0
BBX 7 15 0 0
BITMAP
24
00
82
00
00
34
82
00
82
B6
00
82
82
00
82
ENDCHAR
STARTCHAR Atilde
ENCODING 195
SWIDTH 600 0
DWIDTH 9 0
BBX 7 15 0 0
BITMAP
12
00
24
00
00
34
82
00
82
B6
00
82
82
00
82
ENDCHAR
STARTCHAR Adieresis
ENCODING 196
SWIDTH 600 0
DWIDTH 9 0
BBX 7 13 0 0
BITMAP
24
00
00
34
82
00
82
B6
00
82
82
00
82
ENDCHAR
STARTCHAR Aring
ENCODING 197
SWIDTH 600 0
DWIDTH 9 0
BBX 7 15 0 0
BITMAP
10
00
24
10
00
34
82
00
82
B6
00
82
82
00
82
ENDCHAR
STARTCHAR AE
ENCODING 198
SWIDTH 800 0
DWIDTH 12 0
BBX 10 10 0 0
BITMAP
36C0
8400
0000
8400
B680
0000
8400
8400
0000
86C0
ENDCHAR
STARTCHAR Ccedilla
ENCODING 199
SWIDTH 600 0
DWIDTH 9 0
BBX 7 13 0 -3
BITMAP
36
80
00
80
80
00
80
80
00
36
10
00
A0
ENDCHAR
STARTCHAR Egrave
ENCODING 200
SWIDTH 600 0
DWIDTH 9 0
BBX 7 15 0 0
BITMAP
20
00
10
00
00
B6
80
00
80
B4
00
80
80
00
B6
ENDCHAR
STARTCHAR Eacute
ENCODING 201
SWIDTH 600 0
DWIDTH 9 0
BBX 7 15 0 0
BITMAP
04
00
10
00
00
B6
80
00
80
B4
00
80
80
00
B6
ENDCHAR
STARTCHAR Ecircumflex
ENCODING 202
SWIDTH 600 0
DWIDTH 9 0
BBX 7 15 0 0
BITMAP
24
00
82
00
00
B6
80
00
80
B4
00
80
80
00
B6
ENDCHAR
STARTCHAR Edieresis
ENCODING 203
SWIDTH 600 0
DWIDTH 9 0
BBX 7 13 0 0
BITMAP
24
00
00
B6
80
00
80
B4
00
80
80
00
B6
ENDCHAR
STARTCHAR Igrave
ENCODING 204
SWIDTH 600 0
DWIDTH 9 0
BBX 7 15 0 0
BITMAP
20
00
10
00
00
B6
10
00
10
10
00
10
10
00
B6
ENDCHAR
STARTCHAR Iacute
ENCODING 205
SWIDTH 600 0
DWIDTH 9 0
BBX 7 15 0 0
BITMAP
04
00
10
00
00
B6
10
00
10
10
00
10
10
00
B6
ENDCHAR
STARTCHAR Icircumflex
ENCODING 206
SWIDTH 600 0
DWIDTH 9 0
BBX 7 15 0 0
BITMAP
24
00
82
00
00
B6
10
00
10
10
00
10
10
00
B6
ENDCHAR
STARTCHAR Idieresis
ENCODING 207
SWIDTH 600 0
DWIDTH 9 0
BBX 7 13 0 0
BITMAP
24
00
00
B6
10
00
10
10
00
10
10
00
B6
ENDCHAR
STARTCHAR Eth
ENCODING 208
SWIDTH 700 0
DWIDTH 11 0
BBX 9 10 0 0
BITMAP
3600
2080
0000
2080
B480
0000
2080
2080
0000
3600
ENDCHAR
STARTCHAR Ntilde
ENCODING 209
SWIDTH 600 0
DWIDTH 9 0
BBX 7 15 0 0
BITMAP
12
00
24
00
00
82
82
00
A2
92
00
86
82
00
82
ENDCHAR
STARTCHAR Ograve
ENCODING 210
SWIDTH 600 0
DWIDTH 9 0
BBX 7 15 0 0
BITMAP
20
00
10
00
00
34
82
00
82
82
00
82
82
00
34
ENDCHAR
STARTCHAR Oacute
ENCODING 211
SWIDTH 600 0
DWIDTH 9 0
BBX 7 15 0 0
BITMAP
04
00
10
00
00
34
82
00
82
82
00
82
82
00
34
ENDCHAR
STARTCHAR Ocircumflex
ENCODING 212
SWIDTH 600 0
DWIDTH 9 0
BBX 7 15 0 0
BITMAP
24
00
82
00
00
34
82
00
82
82
00
82
82
00
34
ENDCHAR
STARTCHAR Otilde
ENCODING 213
SWIDTH 600 0
DWIDTH 9 0
BBX 7 15 0 0
BITMAP
12
00
24
00
00
34
82
00
82
82
00
82
82
00
34
ENDCHAR
STARTCHAR Odieresis
ENCODING 214
SWIDTH 600 0
DWIDTH 9 0
BBX 7 13 0 0
BITMAP
24
00
00
34
82
00
82
82
00
82
82
00
34
ENDCHAR
STARTCHAR multiply
ENCODING 215
SWIDTH 600 0
DWIDTH 9 0
BBX 7 7 0 2
BITMAP
82
00
24
10
00
24
82
ENDCHAR
STARTCHAR Oslash
ENCODING 216
SWIDTH 600 0
DWIDTH 9 0
BBX 7 10 0 0
BITMAP
34
82
00
86
92
00
A2
82
00
34
ENDCHAR
STARTCHAR Ugrave
ENCODING 217
SWIDTH 600 0
DWIDTH 9 0
BBX 7 15 0 0
BITMAP
20
00
10
00
00
82
82
00
82
82
00
82
82
00
34
ENDCHAR
STARTCHAR Uacute
ENCODING 218
SWIDTH 600 0
DWIDTH 9 0
BBX 7 15 0 0
BITMAP
04
00
10
00
00
82
82
00
82
82
00
82
82
00
34
ENDCHAR
STARTCHAR Ucircumflex
ENCODING 219
SWIDTH 600 0
DWIDTH 9 0
BBX 7 15 0 0
BITMAP
24
00
82
00
00
82
82
00
82
82
00
82
82
00
34
ENDCHAR
STARTCHAR Udieresis
ENCODING 220
SWIDTH 600 0
DWIDTH 9 0
BBX 7 13 0 0
BITMAP
24
00
00
82
82
00
82
82
00
82
82
00
34
ENDCHAR
STARTCHAR Yacute
ENCODING 221
SWIDTH 600 0
DWIDTH 9 0
BBX 7 15 0 0
BITMAP
04
00
10
00
00
82
82
00
24
10
00
10
10
00
10
ENDCHAR
STARTCHAR Thorn
ENCODING 222
SWIDTH 600 0
DWIDTH 9 0
BBX 7 10 0 0
BITMAP
80
B4
00
82
82
00
82
B4
00
80
ENDCHAR
STARTCHAR germandbls
ENCODING 223
SWIDTH 600 0
DWIDTH 9 0
BBX 7 10 0 0
BITMAP
30
84
00
84
B4
00
82
82
00
B4
ENDCHAR
STARTCHAR agrave
ENCODING 224
SWIDTH 500 0
DWIDTH 8 0
BBX 6 12 0 0
BITMAP
80
00
20
00
00
34
84
00
84
84
00
34
ENDCHAR
STARTCHAR aacute
ENCODING 225
SWIDTH 500 0
DWIDTH 8 0
BBX 6 12 0 0
BITMAP
04
00
10
00
00
34
84
00
84
84
00
34
ENDCHAR
STARTCHAR acircumflex
ENCODING 226
SWIDTH 500 0
DWIDTH 8 0
BBX 6 12 0 0
BITMAP
10
00
24
00
00
34
84
00
84
84
00
34
ENDCHAR
STARTCHAR atilde
ENCODING 227
SWIDTH 500 0
DWIDTH 8 0
BBX 6 12 0 0
BITMAP
24
00
90
00
00
34
84
00
84
84
00
34
ENDCHAR
STARTCHAR adieresis
ENCODING 228
SWIDTH 500 0
DWIDTH 8 0
BBX 6 10 0 0
BITMAP
24
00
00
34
84
00
84
84
00
34
ENDCHAR
STARTCHAR aring
ENCODING 229
SWIDTH 500 0
DWIDTH 8 0
BBX 6 13 0 0
BITMAP
10
24
00
10
00
00
34
84
00
84
84
00
34
ENDCHAR
STARTCHAR ae
ENCODING 230
SWIDTH 800 0
DWIDTH 12 0
BBX 10 7 0 0
BITMAP
3280
0440
36C0
0000
8400
8000
32C0
ENDCHAR
STARTCHAR ccedilla
ENCODING 231
SWIDTH 500 0
DWIDTH 8 0
BBX 6 10 0 -3
BITMAP
34
80
00
80
80
00
34
10
00
A0
ENDCHAR
STARTCHAR egrave
ENCODING 232
SWIDTH 500 0
DWIDTH 8 0
BBX 6 12 0 0
BITMAP
80
00
20
00
00
30
84
00
B4
80
00
34
ENDCHAR
STARTCHAR eacute
ENCODING 233
SWIDTH 500 0
DWIDTH 8 0
BBX 6 12 0 0
BITMAP
04
00
10
00
00
30
84
00
B4
80
00
34
ENDCHAR
STARTCHAR ecircumflex
ENCODING 234
SWIDTH 500 0
DWIDTH 8 0
BBX 6 12 0 0
BITMAP
30
00
84
00
00
30
84
00
B4
80
00
34
ENDCHAR
STARTCHAR edieresis
ENCODING 235
SWIDTH 500 0
DWIDTH 8 0
BBX 6 10 0 0
BITMAP
84
00
00
30
84
00
B4
80
00
34
ENDCHAR
STARTCHAR igrave
ENCODING 236
SWIDTH 400 0
DWIDTH 5 0
BBX 3 12 0 0
BITMAP
80
00
40
00
00
E0
40
00
40
40
00
E0
ENDCHAR
STARTCHAR iacute
ENCODING 237
SWIDTH 400 0
DWIDTH 5 0
BBX 3 12 0 0
BITMAP
20
00
40
00
00
E0
40
00
40
40
00
E0
ENDCHAR
STARTCHAR icircumflex
ENCODING 238
SWIDTH 400 0
DWIDTH 5 0
BBX 3 12 0 0
BITMAP
40
00
A0
00
00
E0
40
00
40
40
00
E0
ENDCHAR
STARTCHAR idieresis
ENCODING 239
SWIDTH 400 0
DWIDTH 5 0
BBX 3 10 0 0
BITMAP
A0
00
00
E0
40
00
40
40
00
E0
ENDCHAR
STARTCHAR eth
ENCODING 240
SWIDTH 500 0
DWIDTH 8 0
BBX 6 10 0 0
BITMAP
30
04
00
34
84
00
84
84
00
30
ENDCHAR
STARTCHAR ntilde
ENCODING 241
SWIDTH 500 0
DWIDTH 8 0
BBX 6 12 0 0
BITMAP
24
00
90
00
00
B0
84
00
84
84
00
84
ENDCHAR
STARTCHAR ograve
ENCODING 242
SWIDTH 500 0
DWIDTH 8 0
BBX 6 12 0 0
BITMAP
80
00
20
00
00
30
84
00
84
84
00
30
ENDCHAR
STARTCHAR oacute
ENCODING 243
SWIDTH 500 0
DWIDTH 8 0
BBX 6 12 0 0
BITMAP
04
00
10
00
00
30
84
00
84
84
00
30
ENDCHAR
STARTCHAR ocircumflex
ENCODING 244
SWIDTH 500 0
DWIDTH 8 0
BBX 6 12 0 0
BITMAP
30
00
84
00
00
30
84
00
84
84
00
30
ENDCHAR
STARTCHAR otilde
ENCODING 245
SWIDTH 500 0
DWIDTH 8 0
BBX 6 12 0 0
BITMAP
24
00
90
00
00
30
84
00
84
84
00
30
ENDCHAR
STARTCHAR odieresis
ENCODING 246
SWIDTH 500 0
DWIDTH 8 0
BBX 6 10 0 0
BITMAP
84
00
00
30
84
00
84
84
00
30
ENDCHAR
STARTCHAR divide
ENCODING 247
SWIDTH 600 0
DWIDTH 9 0
BBX 7 7 0 2
BITMAP
10
00
00
B6
00
00
10
ENDCHAR
STARTCHAR oslash
ENCODING 248
SWIDTH 500 0
DWIDTH 8 0
BBX 6 7 0 0
BITMAP
30
94
00
A4
84
00
30
ENDCHAR
STARTCHAR ugrave
ENCODING 249
SWIDTH 500 0
DWIDTH 8 0
BBX 6 12 0 0
BITMAP
80
00
20
00
00
84
84
00
84
84
00
34
ENDCHAR
STARTCHAR uacute
ENCODING 250
SWIDTH 500 0
DWIDTH 8 0
BBX 6 12 0 0
BITMAP
04
00
10
00
00
84
84
00
84
84
00
34
ENDCHAR
STARTCHAR ucircumflex
ENCODING 251
SWIDTH 500 0
DWIDTH 8 0
BBX 6 12 0 0
BITMAP
30
00
84
00
00
84
84
00
84
84
00
34
ENDCHAR
STARTCHAR udieresis
ENCODING 252
SWIDTH 500 0
DWIDTH 8 0
BBX 6 10 0 0
BITMAP
84
00
00
84
84
00
84
84
00
34
ENDCHAR
STARTCHAR yacute
ENCODING 253
SWIDTH 500 0
DWIDTH 8 0
BBX 6 15 0 -3
BITMAP
04
00
10
00
00
84
84
00
84
84
00
34
04
00
30
ENDCHAR
STARTCHAR thorn
ENCODING 254
SWIDTH 500 0
DWIDTH 8 0
BBX 6 13 0 -3
BITMAP
80
80
00
B0
84
00
84
84
00
B0
80
00
80
ENDCHAR
STARTCHAR ydieresis
ENCODING 255
SWIDTH 500 0
DWIDTH 8 0
BBX 6 13 0 -3
BITMAP
84
00
00
84
84
00
84
84
00
34
04
00
30
ENDCHAR
STARTCHAR Lslash
ENCODING 321
SWIDTH 500 0
DWIDTH 8 0
BBX 6 13 0 -3
BITMAP
B4
B4
00
B4
B4
00
B4
B4
00
B4
B4
00
B4
ENDCHAR
STARTCHAR lslash
ENCODING 322
SWIDTH 600 0
DWIDTH 9 0
BBX 7 18 0 -3
BITMAP
B6
00
B6
B6
00
B6
B6
00
B6
B6
00
B6
B6
00
B6
B6
00
B6
ENDCHAR
STARTCHAR OE
ENCODING 338
SWIDTH 800 0
DWIDTH 12 0
BBX 10 10 0 0
BITMAP
36C0
8400
0000
8400
8680
0000
8400
8400
0000
36C0
ENDCHAR
STARTCHAR oe
ENCODING 339
SWIDTH 800 0
DWIDTH 12 0
BBX 10 7 0 0
BITMAP
3280
8440
0000
86C0
8400
0000
32C0
ENDCHAR
STARTCHAR Scaron
ENCODING 352
SWIDTH 600 0
DWIDTH 9 0
BBX 7 15 0 0
BITMAP
24
00
10
00
00
36
80
00
80
34
00
02
02
00
B4
ENDCHAR
STARTCHAR scaron
ENCODING 353
SWIDTH 500 0
DWIDTH 8 0
BBX 6 12 0 0
BITMAP
24
00
10
00
00
34
80
00
B4
04
00
B0
ENDCHAR
STARTCHAR Ydieresis
ENCODING 376
SWIDTH 600 0
DWIDTH 9 0
BBX 7 13 0 0
BITMAP
24
00
00
82
82
00
24
10
00
10
10
00
10
ENDCHAR
STARTCHAR Zcaron
ENCODING 381
SWIDTH 600 0
DWIDTH 9 0
BBX 7 15 0 0
BITMAP
24
00
10
00
00
B6
02
00
04
10
00
20
80
00
B6
ENDCHAR
STARTCHAR zcaron
ENCODING 382
SWIDTH 500 0
DWIDTH 8 0
BBX 6 12 0 0
BITMAP
24
00
10
00
00
B4
04
00
30
80
00
B4
ENDCHAR
STARTCHAR florin
ENCODING 402
SWIDTH 500 0
DWIDTH 8 0
BBX 6 13 0 -3
BITMAP
14
20
00
B0
20
00
20
20
00
20
20
00
80
ENDCHAR
STARTCHAR circumflex
ENCODING 710
SWIDTH 400 0
DWIDTH 5 0
BBX 3 2 0 8
BITMAP
40
A0
ENDCHAR
STARTCHAR tilde
ENCODING 732
SWIDTH 500 0
DWIDTH 8 0
BBX 6 2 0 8
BITMAP
24
90
ENDCHAR
STARTCHAR mu.dup2
ENCODING 956
SWIDTH 600 0
DWIDTH 9 0
BBX 7 10 0 -1
BITMAP
82
00
82
82
00
82
A6
00
92
80
ENDCHAR
STARTCHAR endash
ENCODING 8211
SWIDTH 500 0
DWIDTH 8 0
BBX 6 1 0 5
BITMAP
B4
ENDCHAR
STARTCHAR emdash
ENCODING 8212
SWIDTH 700 0
DWIDTH 11 0
BBX 9 1 0 5
BITMAP
B680
ENDCHAR
STARTCHAR quoteleft
ENCODING 8216
SWIDTH 300 0
DWIDTH 5 0
BBX 3 5 0 8
BITMAP
80
80
00
A0
A0
ENDCHAR
STARTCHAR quoteright
ENCODING 8217
SWIDTH 300 0
DWIDTH 5 0
BBX 3 5 0 5
BITMAP
A0
A0
00
20
20
ENDCHAR
STARTCHAR quotesinglbase
ENCODING 8218
SWIDTH 300 0
DWIDTH 5 0
BBX 3 6 0 -3
BITMAP
A0
00
A0
20
00
20
ENDCHAR
STARTCHAR quotedblleft
ENCODING 8220
SWIDTH 600 0
DWIDTH 9 0
BBX 7 5 0 8
BITMAP
84
84
00
A6
A6
ENDCHAR
STARTCHAR quotedblright
ENCODING 8221
SWIDTH 600 0
DWIDTH 9 0
BBX 7 5 0 5
BITMAP
A6
A6
00
22
22
ENDCHAR
STARTCHAR quotedblbase
ENCODING 8222
SWIDTH 600 0
DWIDTH 9 0
BBX 7 6 0 -3
BITMAP
A6
00
A6
22
00
22
ENDCHAR
STARTCHAR dagger
ENCODING 8224
SWIDTH 400 0
DWIDTH 5 0
BBX 3 10 0 0
BITMAP
40
40
00
E0
40
00
40
40
00
40
ENDCHAR
STARTCHAR daggerdbl
ENCODING 8225
SWIDTH 400 0
DWIDTH 5 0
BBX 3 10 0 0
BITMAP
40
40
00
E0
40
00
E0
40
00
40
ENDCHAR
STARTCHAR bullet
ENCODING 8226
SWIDTH 400 0
DWIDTH 5 0
BBX 3 4 0 3
BITMAP
E0
E0
00
E0
ENDCHAR
STARTCHAR ellipsis
ENCODING 8230
SWIDTH 600 0
DWIDTH 9 0
BBX 7 1 0 0
BITMAP
92
ENDCHAR
STARTCHAR perthousand
ENCODING 8240
SWIDTH 900 0
DWIDTH 14 0
BBX 12 10 0 0
BITMAP
A200
A200
0000
0400
1000
0000
2000
8650
0000
8650
ENDCHAR
STARTCHAR guilsinglleft
ENCODING 8249
SWIDTH 400 0
DWIDTH 5 0
BBX 3 7 0 2
BITMAP
20
00
40
80
00
40
20
ENDCHAR
STARTCHAR guilsinglright
ENCODING 8250
SWIDTH 400 0
DWIDTH 5 0
BBX 3 7 0 2
BITMAP
80
00
40
20
00
40
80
ENDCHAR
STARTCHAR fraction
ENCODING 8260
SWIDTH 600 0
DWIDTH 9 0
BBX 7 10 0 0
BITMAP
02
02
00
04
10
00
20
80
00
80
ENDCHAR
STARTCHAR Euro
ENCODING 8364
SWIDTH 600 0
DWIDTH 9 0
BBX 7 10 0 0
BITMAP
36
80
00
B4
80
00
B4
80
00
36
ENDCHAR
STARTCHAR trademark
ENCODING 8482
SWIDTH 1100 0
DWIDTH 17 0
BBX 15 10 0 0
BITMAP
B682
10CA
0000
1092
1092
0000
1082
1082
0000
1082
ENDCHAR
STARTCHAR minus
ENCODING 8722
SWIDTH 600 0
DWIDTH 9 0
BBX 7 1 0 5
BITMAP
B6
ENDCHAR
STARTCHAR fi
ENCODING 64257
SWIDTH 600 0
DWIDTH 9 0
BBX 7 10 0 0
BITMAP
B6
B6
00
B6
B6
00
B6
B6
00
B6
ENDCHAR
STARTCHAR fl
ENCODING 64258
SWIDTH 500 0
DWIDTH 8 0
BBX 6 10 0 0
BITMAP
B4
B4
00
B4
B4
00
B4
B4
00
B4
ENDCHAR
STARTCHAR .notdef
ENCODING -1
SWIDTH 600 0
DWIDTH 9 0
BBX 1 1 0 0
BITMAP
00
ENDCHAR
STARTCHAR .null
ENCODING -1
SWIDTH 0 0
DWIDTH 0 0
BBX 1 1 0 0
BITMAP
00
ENDCHAR
STARTCHAR nonmarkingreturn
ENCODING -1
SWIDTH 600 0
DWIDTH 9 0
BBX 1 1 0 0
BITMAP
00
ENDCHAR
ENDFONT
